<svg width="47" height="31" viewBox="0 0 47 31" fill="none" xmlns="http://www.w3.org/2000/svg">
<path d="M10.032 14.544C10.096 14.688 10.128 14.84 10.128 15C10.128 15.288 10.032 15.504 9.84 15.648C9.664 15.792 9.44 15.904 9.168 15.984C8.912 16.048 8.632 16.088 8.328 16.104C8.024 16.12 7.752 16.136 7.512 16.152C7.464 16.168 7.416 16.2 7.368 16.248C7.32 16.28 7.264 16.296 7.2 16.296C7.152 16.296 7.096 16.288 7.032 16.272C6.984 16.24 6.928 16.224 6.864 16.224C6.784 16.224 6.688 16.256 6.576 16.32C6.464 16.368 6.336 16.424 6.192 16.488C6.048 16.536 5.896 16.592 5.736 16.656C5.576 16.704 5.424 16.728 5.28 16.728C5.008 16.728 4.728 16.768 4.44 16.848C4.152 16.928 3.864 17.024 3.576 17.136C3.288 17.248 2.992 17.352 2.688 17.448C2.4 17.544 2.112 17.6 1.824 17.616C1.68 17.616 1.504 17.592 1.296 17.544C1.088 17.48 0.888 17.4 0.696 17.304C0.504 17.208 0.336 17.104 0.192 16.992C0.0639999 16.88 0 16.76 0 16.632C0 16.504 0.056 16.408 0.168 16.344C0.296 16.28 0.36 16.176 0.36 16.032C0.36 15.744 0.328 15.448 0.264 15.144C0.216 14.84 0.192 14.528 0.192 14.208C0.192 14.08 0.2 13.96 0.216 13.848C0.248 13.736 0.264 13.616 0.264 13.488C0.264 13.216 0.248 12.952 0.216 12.696C0.2 12.424 0.192 12.152 0.192 11.88C0.192 11.72 0.192 11.56 0.192 11.4C0.208 11.24 0.216 11.08 0.216 10.92C0.216 10.696 0.176 10.472 0.096 10.248C0.0319999 10.024 0 9.816 0 9.624C0 9.304 0.016 8.984 0.0480001 8.664C0.0960001 8.328 0.12 8 0.12 7.68C0.12 7.408 0.0960001 7.136 0.0480001 6.864C0.016 6.576 0 6.296 0 6.024C0 5.88 0.0079999 5.688 0.0239999 5.448C0.04 5.208 0.056 4.944 0.072 4.656C0.104 4.368 0.136 4.08 0.168 3.792C0.2 3.488 0.232 3.224 0.264 3C0.264 2.888 0.248 2.784 0.216 2.688C0.184 2.592 0.168 2.488 0.168 2.376C0.168 2.12 0.184 1.872 0.216 1.632C0.264 1.376 0.288 1.12 0.288 0.864C0.288 0.736 0.352 0.616 0.48 0.504001C0.624 0.392 0.792 0.304 0.984 0.240001C1.176 0.16 1.376 0.104 1.584 0.0720005C1.808 0.0240002 2.008 0 2.184 0C2.36 0 2.52 0.0720005 2.664 0.216001C2.808 0.344001 2.88 0.536 2.88 0.792001C2.864 0.872001 2.856 0.944001 2.856 1.008C2.856 1.056 2.856 1.112 2.856 1.176C2.856 1.56 2.888 1.936 2.952 2.304C3.016 2.672 3.048 3.032 3.048 3.384C3.048 4.04 3.016 4.704 2.952 5.376C2.904 6.048 2.88 6.696 2.88 7.32C2.88 7.432 2.888 7.528 2.904 7.608C2.92 7.688 2.928 7.776 2.928 7.872C2.928 8 2.904 8.136 2.856 8.28C2.824 8.408 2.808 8.536 2.808 8.664C2.808 8.76 2.824 8.856 2.856 8.952C2.888 9.032 2.904 9.128 2.904 9.24C2.904 9.368 2.888 9.496 2.856 9.624C2.84 9.752 2.832 9.88 2.832 10.008C2.832 10.136 2.776 10.256 2.664 10.368C2.568 10.48 2.52 10.608 2.52 10.752C2.52 10.848 2.584 11.008 2.712 11.232C2.84 11.44 2.904 11.784 2.904 12.264C2.904 12.504 2.896 12.72 2.88 12.912C2.88 13.088 2.88 13.28 2.88 13.488C2.88 13.584 2.88 13.728 2.88 13.92C2.88 14.096 2.888 14.28 2.904 14.472C2.936 14.648 2.976 14.808 3.024 14.952C3.088 15.096 3.168 15.168 3.264 15.168C3.888 15.056 4.512 14.92 5.136 14.76C5.76 14.6 6.392 14.448 7.032 14.304C7.32 14.24 7.608 14.168 7.896 14.088C8.184 14.008 8.48 13.968 8.784 13.968C8.928 13.968 9.048 13.984 9.144 14.016C9.24 14.048 9.328 14.088 9.408 14.136C9.488 14.184 9.576 14.248 9.672 14.328C9.768 14.392 9.888 14.464 10.032 14.544ZM2.208 11.928C2.256 11.864 2.28 11.792 2.28 11.712C2.248 11.584 2.224 11.52 2.208 11.52C2.128 11.52 2.072 11.568 2.04 11.664C2.04 11.84 2.096 11.928 2.208 11.928ZM2.304 9.672C2.336 9.512 2.36 9.408 2.376 9.36C2.344 9.296 2.328 9.232 2.328 9.168C2.328 9.104 2.304 9.072 2.256 9.072C2.16 9.072 2.096 9.112 2.064 9.192C2.048 9.256 2.04 9.32 2.04 9.384C2.04 9.464 2.056 9.544 2.088 9.624C2.12 9.704 2.176 9.744 2.256 9.744C2.288 9.744 2.304 9.72 2.304 9.672Z" fill="white"/>
<path d="M23.0445 8.328C23.0445 8.296 23.0605 8.28 23.0925 8.28C23.1565 8.28 23.2445 8.328 23.3565 8.424C23.4685 8.504 23.5245 8.6 23.5245 8.712C23.5245 8.808 23.4525 8.904 23.3085 9C23.1645 9.096 22.9005 9.16 22.5165 9.192C22.1005 9.224 21.7005 9.32 21.3165 9.48C20.9485 9.64 20.5885 9.808 20.2365 9.984C20.0125 10.096 19.8285 10.2 19.6845 10.296C19.5405 10.376 19.4205 10.464 19.3245 10.56C19.2445 10.64 19.1805 10.736 19.1325 10.848C19.1005 10.96 19.0765 11.104 19.0605 11.28C19.0605 11.312 19.0365 11.44 18.9885 11.664C18.9565 11.888 18.9085 12.128 18.8445 12.384C18.7965 12.64 18.7405 12.88 18.6765 13.104C18.6285 13.312 18.5965 13.424 18.5805 13.44C18.4525 13.52 18.3725 13.624 18.3405 13.752C18.3085 13.864 18.2845 13.992 18.2685 14.136C18.2685 14.264 18.2605 14.4 18.2445 14.544C18.2445 14.688 18.1965 14.816 18.1005 14.928C18.0205 15.04 17.9405 15.168 17.8605 15.312C17.7965 15.44 17.6925 15.608 17.5485 15.816C17.4045 16.008 17.2125 16.256 16.9725 16.56C16.7325 16.848 16.3965 17.208 15.9645 17.64C15.9645 17.64 15.9565 17.632 15.9405 17.616C15.8925 17.616 15.8125 17.648 15.7005 17.712C15.5885 17.76 15.4605 17.816 15.3165 17.88C15.1885 17.96 15.0525 18.04 14.9085 18.12C14.7805 18.2 14.6765 18.264 14.5965 18.312C14.3405 18.232 14.0765 18.16 13.8045 18.096C13.5325 18.032 13.2765 17.912 13.0365 17.736C12.7165 17.48 12.4285 17.168 12.1725 16.8C11.9485 16.48 11.7485 16.088 11.5725 15.624C11.4125 15.16 11.3325 14.616 11.3325 13.992C11.3325 13.752 11.3645 13.52 11.4285 13.296C11.4925 13.072 11.5245 12.848 11.5245 12.624C11.5245 12.544 11.5485 12.424 11.5965 12.264C11.6605 12.088 11.7165 11.896 11.7645 11.688C11.8285 11.48 11.8845 11.28 11.9325 11.088C11.9965 10.88 12.0285 10.704 12.0285 10.56C12.0285 10.432 11.9885 10.28 11.9085 10.104C11.8445 9.928 11.7725 9.744 11.6925 9.552C11.6125 9.344 11.5325 9.144 11.4525 8.952C11.3885 8.744 11.3565 8.552 11.3565 8.376C11.3565 7.752 11.4125 7.264 11.5245 6.912C11.6525 6.544 11.8205 6.272 12.0285 6.096C12.2525 5.904 12.5165 5.784 12.8205 5.736C13.1405 5.688 13.5005 5.664 13.9005 5.664H15.0525C15.3725 5.664 15.6685 5.76 15.9405 5.952C16.2285 6.128 16.5165 6.264 16.8045 6.36C16.9645 6.424 17.1405 6.528 17.3325 6.672C17.5245 6.816 17.7005 6.984 17.8605 7.176C18.0365 7.368 18.1885 7.576 18.3165 7.8C18.4605 8.024 18.5645 8.248 18.6285 8.472C18.6765 8.664 18.7325 8.864 18.7965 9.072C18.8605 9.264 18.9965 9.36 19.2045 9.36C19.2525 9.36 19.3245 9.344 19.4205 9.312C20.0285 9.104 20.6205 8.896 21.1965 8.688C21.7885 8.48 22.4045 8.36 23.0445 8.328ZM17.7405 11.88C17.7085 11.72 17.6925 11.576 17.6925 11.448C17.6925 11.32 17.6045 11.256 17.4285 11.256C16.9965 11.416 16.5565 11.568 16.1085 11.712C15.6765 11.856 15.2285 11.928 14.7645 11.928C14.5245 11.992 14.3565 12.184 14.2605 12.504C14.1645 12.808 14.1165 13.144 14.1165 13.512C14.1165 13.576 14.1165 13.64 14.1165 13.704C14.1325 13.752 14.1405 13.808 14.1405 13.872C14.1405 14.032 14.1085 14.2 14.0445 14.376C13.9965 14.552 13.9725 14.712 13.9725 14.856C13.9725 14.984 13.9885 15.128 14.0205 15.288C14.0685 15.448 14.1325 15.608 14.2125 15.768C14.2925 15.928 14.3885 16.064 14.5005 16.176C14.6125 16.272 14.7485 16.32 14.9085 16.32C15.1965 16.32 15.4685 16.168 15.7245 15.864C15.9965 15.56 16.2365 15.224 16.4445 14.856C16.6685 14.472 16.8605 14.112 17.0205 13.776C17.1965 13.44 17.3405 13.232 17.4525 13.152C17.5805 13.072 17.6525 12.896 17.6685 12.624C17.6845 12.352 17.7085 12.104 17.7405 11.88ZM14.2605 6.48C14.2125 6.496 14.1565 6.512 14.0925 6.528C14.0285 6.528 13.9565 6.536 13.8765 6.552C13.6845 6.584 13.5165 6.664 13.3725 6.792C13.2285 6.904 13.1085 7.048 13.0125 7.224C12.9165 7.384 12.8365 7.568 12.7725 7.776C12.7245 7.968 12.7005 8.152 12.7005 8.328C12.7005 8.44 12.7085 8.592 12.7245 8.784C12.7565 8.96 12.8525 9.048 13.0125 9.048C13.0445 9.048 13.0605 9.04 13.0605 9.024C13.2365 8.848 13.3565 8.728 13.4205 8.664C13.4845 8.584 13.5565 8.544 13.6365 8.544C13.7325 8.544 13.8525 8.576 13.9965 8.64C14.0285 8.656 14.1325 8.688 14.3085 8.736C14.4845 8.784 14.6685 8.848 14.8605 8.928C15.0525 9.008 15.2205 9.104 15.3645 9.216C15.5245 9.328 15.6045 9.456 15.6045 9.6C15.6045 9.712 15.5485 9.856 15.4365 10.032C15.3245 10.208 15.2685 10.352 15.2685 10.464C15.2685 10.56 15.3005 10.624 15.3645 10.656C15.4445 10.672 15.5165 10.68 15.5805 10.68C15.7405 10.664 15.9325 10.64 16.1565 10.608C16.3805 10.56 16.5965 10.504 16.8045 10.44C17.0285 10.36 17.2125 10.272 17.3565 10.176C17.5165 10.064 17.5965 9.936 17.5965 9.792C17.5965 9.712 17.5885 9.64 17.5725 9.576C17.5725 9.512 17.5565 9.44 17.5245 9.36C17.3805 9.04 17.2045 8.712 16.9965 8.376C16.7885 8.024 16.5485 7.712 16.2765 7.44C16.0205 7.152 15.7245 6.92 15.3885 6.744C15.0525 6.568 14.6765 6.48 14.2605 6.48Z" fill="white"/>
<path d="M30.3943 16.56C30.5543 16.624 30.6343 16.72 30.6343 16.848C30.6343 16.976 30.5543 17.152 30.3943 17.376C30.2503 17.584 30.1063 17.712 29.9623 17.76C30.1223 17.872 30.2023 17.96 30.2023 18.024C30.2023 18.104 30.1543 18.184 30.0583 18.264C29.9623 18.344 29.9143 18.432 29.9143 18.528C29.9143 18.592 29.9543 18.64 30.0343 18.672C30.1303 18.704 30.1783 18.752 30.1783 18.816C30.1783 18.912 30.1223 19 30.0103 19.08C29.8983 19.16 29.8423 19.264 29.8423 19.392C29.8423 19.456 29.8583 19.512 29.8903 19.56C29.9223 19.624 29.9383 19.68 29.9383 19.728C29.9383 19.84 29.9143 19.944 29.8663 20.04C29.8343 20.136 29.8103 20.232 29.7943 20.328C29.7943 20.36 29.7303 20.432 29.6023 20.544C29.4743 20.656 29.4103 20.8 29.4103 20.976C29.4103 21.136 29.4263 21.264 29.4583 21.36C29.5063 21.456 29.5303 21.56 29.5303 21.672C29.5303 21.832 29.4983 22.04 29.4343 22.296C29.3703 22.568 29.2983 22.832 29.2183 23.088C29.1543 23.36 29.0903 23.608 29.0263 23.832C28.9783 24.072 28.9543 24.232 28.9543 24.312C28.9543 24.36 28.9623 24.392 28.9783 24.408C28.9783 24.52 28.9463 24.648 28.8823 24.792C28.8183 24.936 28.7463 25.072 28.6663 25.2C28.6023 25.344 28.5383 25.472 28.4743 25.584C28.4263 25.696 28.4023 25.776 28.4023 25.824C28.4023 25.872 28.4183 25.92 28.4503 25.968C28.4823 26.016 28.4983 26.064 28.4983 26.112C28.4983 26.192 28.4663 26.264 28.4023 26.328C28.3383 26.392 28.3063 26.464 28.3063 26.544C28.3063 26.688 28.2743 26.832 28.2103 26.976C28.1463 27.136 28.0823 27.288 28.0183 27.432C27.9543 27.576 27.8903 27.712 27.8263 27.84C27.7783 27.968 27.7543 28.08 27.7543 28.176C27.7543 28.208 27.7623 28.24 27.7783 28.272C27.7943 28.32 27.8023 28.36 27.8023 28.392C27.8023 28.488 27.7623 28.576 27.6823 28.656C27.6023 28.752 27.5623 28.848 27.5623 28.944C27.5623 29.488 27.3703 29.92 26.9863 30.24C26.6183 30.576 26.1863 30.744 25.6903 30.744C25.5623 30.744 25.4263 30.736 25.2823 30.72C25.1543 30.704 25.0263 30.656 24.8983 30.576C24.5783 30.368 24.2903 30.168 24.0343 29.976C23.7943 29.8 23.5863 29.576 23.4103 29.304C23.2343 29.048 23.0983 28.728 23.0023 28.344C22.9223 27.96 22.8823 27.464 22.8823 26.856C22.8823 26.584 22.9063 26.312 22.9543 26.04C23.0183 25.768 23.0503 25.496 23.0503 25.224C23.0503 25.144 23.0743 24.976 23.1223 24.72C23.1863 24.464 23.2583 24.192 23.3383 23.904C23.4343 23.616 23.5303 23.344 23.6263 23.088C23.7383 22.848 23.8423 22.688 23.9383 22.608C24.0503 22.528 24.1143 22.424 24.1303 22.296C24.1623 22.184 24.1863 22.064 24.2023 21.936C24.2183 21.808 24.2423 21.68 24.2743 21.552C24.3223 21.44 24.4103 21.344 24.5383 21.264C24.5703 21.232 24.5943 21.192 24.6103 21.144C24.6263 21.096 24.6423 21.056 24.6583 21.024C24.7223 20.752 24.8183 20.536 24.9463 20.376C25.0743 20.232 25.2023 20.032 25.3303 19.776C25.4743 19.264 25.7703 18.864 26.2183 18.576C26.2343 18.56 26.2663 18.512 26.3143 18.432C26.3623 18.24 26.4503 18.064 26.5783 17.904C26.7063 17.76 26.8343 17.632 26.9623 17.52C27.0903 17.392 27.2183 17.272 27.3463 17.16C27.4743 17.032 27.5623 16.896 27.6103 16.752C27.6263 16.704 27.6743 16.616 27.7543 16.488C27.8503 16.344 27.9543 16.192 28.0663 16.032C28.1943 15.872 28.3143 15.736 28.4263 15.624C28.5543 15.496 28.6423 15.432 28.6903 15.432C28.7383 15.432 28.8103 15.448 28.9063 15.48C28.9543 15.352 29.0183 15.2 29.0983 15.024C29.1943 14.832 29.2823 14.632 29.3623 14.424C29.4583 14.216 29.5383 14.016 29.6023 13.824C29.6663 13.616 29.6983 13.432 29.6983 13.272C29.6983 13.144 29.6743 13.032 29.6263 12.936C29.5783 12.824 29.5543 12.72 29.5543 12.624C29.5543 12.496 29.5863 12.352 29.6503 12.192C29.7143 12.032 29.7463 11.864 29.7463 11.688C29.7463 11.592 29.7383 11.496 29.7223 11.4C29.7063 11.288 29.6983 11.176 29.6983 11.064C29.6983 10.824 29.7223 10.584 29.7703 10.344C29.8343 10.088 29.8663 9.832 29.8663 9.576C29.8663 9.448 29.8583 9.304 29.8423 9.144C29.8423 8.984 29.7943 8.904 29.6983 8.904C29.6183 8.904 29.5703 8.936 29.5543 9C29.4743 9.224 29.3623 9.4 29.2183 9.528C29.0903 9.64 28.9063 9.696 28.6663 9.696C28.6343 9.696 28.6023 9.68 28.5703 9.648C28.5383 9.648 28.4983 9.688 28.4503 9.768C28.4183 9.848 28.3783 9.936 28.3303 10.032C28.2983 10.128 28.2583 10.224 28.2103 10.32C28.1623 10.4 28.1063 10.456 28.0423 10.488V10.44L28.0663 10.464C28.0343 10.512 28.0023 10.568 27.9703 10.632C27.9383 10.68 27.8983 10.72 27.8503 10.752C27.7223 10.784 27.6023 10.848 27.4903 10.944C27.3943 11.04 27.3063 11.136 27.2263 11.232C27.1463 11.328 27.0583 11.424 26.9623 11.52C26.8823 11.6 26.7943 11.656 26.6983 11.688C26.5223 11.752 26.3943 11.864 26.3143 12.024C26.2503 12.168 26.1623 12.296 26.0503 12.408C25.9223 12.536 25.8103 12.64 25.7143 12.72C25.6183 12.784 25.5063 12.904 25.3783 13.08C25.3463 13.176 25.2823 13.336 25.1863 13.56C25.0903 13.768 24.9623 13.984 24.8023 14.208C24.6583 14.432 24.4903 14.64 24.2983 14.832C24.1063 15.008 23.9063 15.12 23.6983 15.168C22.9623 15.168 22.3863 14.968 21.9703 14.568C21.5703 14.168 21.3703 13.608 21.3703 12.888C21.3703 12.568 21.4103 12.32 21.4903 12.144C21.5863 11.968 21.6583 11.784 21.7063 11.592C21.7543 11.368 21.8183 11.152 21.8983 10.944C21.9943 10.736 22.0823 10.528 22.1623 10.32C22.2423 10.128 22.3703 9.976 22.5463 9.864C22.7383 9.752 22.8743 9.584 22.9543 9.36C22.9863 9.248 23.0423 9.144 23.1223 9.048C23.2183 8.936 23.3143 8.832 23.4103 8.736C23.5223 8.64 23.6183 8.544 23.6983 8.448C23.7943 8.352 23.8663 8.24 23.9143 8.112C23.9783 7.936 24.1143 7.736 24.3223 7.512C24.5463 7.272 24.8103 7.048 25.1143 6.84C25.4183 6.616 25.7383 6.432 26.0743 6.288C26.4103 6.144 26.7303 6.072 27.0343 6.072C27.2743 6.072 27.4983 6.088 27.7063 6.12C27.9303 6.152 28.1543 6.192 28.3783 6.24C28.6503 6.304 28.8823 6.432 29.0743 6.624C29.2823 6.816 29.4823 6.912 29.6743 6.912C29.7863 6.912 29.8903 6.84 29.9863 6.696C30.2103 6.472 30.3303 6.312 30.3463 6.216C30.3623 6.12 30.4583 6.072 30.6343 6.072C30.8103 6.072 31.0183 6.096 31.2583 6.144C31.5143 6.176 31.7463 6.248 31.9543 6.36C32.1783 6.472 32.3623 6.616 32.5063 6.792C32.6663 6.968 32.7463 7.2 32.7463 7.488C32.7463 7.728 32.6983 8.008 32.6023 8.328C32.5063 8.632 32.4023 8.96 32.2903 9.312C32.1783 9.648 32.0743 10 31.9783 10.368C31.8823 10.736 31.8343 11.088 31.8343 11.424C31.8343 11.584 31.7783 11.736 31.6663 11.88C31.5543 12.024 31.4983 12.176 31.4983 12.336C31.4983 12.496 31.5223 12.592 31.5703 12.624C31.6183 12.656 31.6903 12.672 31.7863 12.672C31.9463 12.672 32.0823 12.616 32.1943 12.504C32.2263 12.472 32.3143 12.416 32.4583 12.336C32.6183 12.256 32.7943 12.176 32.9863 12.096C33.1783 12.016 33.3783 11.944 33.5863 11.88C33.7943 11.816 33.9703 11.784 34.1143 11.784C34.1783 11.784 34.2663 11.8 34.3783 11.832C34.5063 11.864 34.6263 11.912 34.7383 11.976C34.8663 12.04 34.9703 12.128 35.0503 12.24C35.1463 12.336 35.1943 12.448 35.1943 12.576C35.1943 12.704 35.1543 12.792 35.0743 12.84C35.0103 12.888 34.9303 12.92 34.8343 12.936C34.7383 12.952 34.6423 12.96 34.5463 12.96C34.4663 12.96 34.4023 12.984 34.3543 13.032C34.2103 13.192 34.0423 13.28 33.8503 13.296C33.6583 13.312 33.4743 13.368 33.2983 13.464C33.1063 13.576 32.9543 13.68 32.8423 13.776C32.7463 13.856 32.6583 13.936 32.5783 14.016C32.4983 14.08 32.4183 14.152 32.3383 14.232C32.2743 14.296 32.1863 14.36 32.0743 14.424C31.9943 14.504 31.9303 14.552 31.8823 14.568C31.8343 14.568 31.7783 14.584 31.7143 14.616C31.6503 14.648 31.5543 14.72 31.4263 14.832C31.3143 14.944 31.1383 15.152 30.8983 15.456C30.8183 15.536 30.7703 15.64 30.7543 15.768C30.7543 15.896 30.7143 16.008 30.6343 16.104C30.6023 16.136 30.5543 16.216 30.4903 16.344C30.4263 16.472 30.3943 16.552 30.3943 16.584V16.56ZM27.7063 25.872C27.6423 25.664 27.6103 25.504 27.6103 25.392C27.6103 25.28 27.6583 25.16 27.7543 25.032C27.8503 24.904 27.8983 24.776 27.8983 24.648C27.8983 24.2 27.9863 23.736 28.1623 23.256C28.3383 22.792 28.4263 22.304 28.4263 21.792C28.4263 21.568 28.4743 21.392 28.5703 21.264C28.6663 21.136 28.7143 21.008 28.7143 20.88C28.7143 20.816 28.6743 20.752 28.5943 20.688C28.5303 20.64 28.4983 20.6 28.4983 20.568C28.4983 20.552 28.5223 20.504 28.5703 20.424C28.5863 20.376 28.6183 20.264 28.6663 20.088C28.7143 19.912 28.7623 19.696 28.8103 19.44C28.8583 19.2 28.8983 18.944 28.9303 18.672C28.9783 18.416 29.0023 18.184 29.0023 17.976C29.0023 17.928 28.9623 17.872 28.8823 17.808C28.8023 17.76 28.7463 17.736 28.7143 17.736C28.6823 17.736 28.6343 17.76 28.5703 17.808C28.5063 17.856 28.4343 17.912 28.3543 17.976C28.2903 18.056 28.2183 18.136 28.1383 18.216C28.0743 18.296 28.0263 18.368 27.9943 18.432C27.5783 19.136 27.1463 19.832 26.6983 20.52C26.2663 21.208 25.8663 21.912 25.4983 22.632C25.1303 23.368 24.8263 24.128 24.5863 24.912C24.3463 25.696 24.2263 26.536 24.2263 27.432C24.2263 27.784 24.2823 28.152 24.3943 28.536C24.5063 28.936 24.7383 29.208 25.0903 29.352C25.2503 29.32 25.4023 29.28 25.5463 29.232C25.7063 29.184 25.8583 29.144 26.0023 29.112C26.0983 28.984 26.1863 28.864 26.2663 28.752C26.3463 28.64 26.4343 28.536 26.5303 28.44C26.6423 28.344 26.6903 28.224 26.6743 28.08C26.6743 27.952 26.7143 27.832 26.7943 27.72C26.9063 27.592 26.9783 27.448 27.0103 27.288C27.0583 27.128 27.1063 26.968 27.1543 26.808C27.2023 26.648 27.2583 26.488 27.3223 26.328C27.4023 26.168 27.5303 26.016 27.7063 25.872ZM29.0743 7.8C29.0103 7.736 28.9543 7.672 28.9063 7.608C28.8743 7.544 28.8023 7.512 28.6903 7.512C28.6103 7.512 28.4743 7.568 28.2823 7.68C28.1063 7.776 27.8983 7.904 27.6583 8.064C27.4183 8.208 27.1623 8.376 26.8903 8.568C26.6343 8.744 26.4023 8.912 26.1943 9.072C25.9863 9.232 25.8103 9.376 25.6663 9.504C25.5223 9.632 25.4503 9.712 25.4503 9.744C25.4503 9.872 25.3703 10.056 25.2103 10.296C25.0503 10.52 24.8823 10.744 24.7063 10.968C24.6583 11.032 24.5783 11.136 24.4663 11.28C24.3703 11.408 24.2743 11.544 24.1783 11.688C24.0823 11.816 23.9943 11.944 23.9143 12.072C23.8503 12.184 23.8183 12.264 23.8183 12.312C23.8503 12.392 23.8583 12.448 23.8423 12.48C23.8423 12.512 23.8823 12.528 23.9623 12.528C23.9783 12.528 23.9943 12.52 24.0103 12.504C24.2503 12.36 24.4743 12.192 24.6823 12C24.9063 11.792 25.1223 11.584 25.3303 11.376C25.5383 11.168 25.7383 10.976 25.9303 10.8C26.1223 10.624 26.3303 10.48 26.5543 10.368C26.6823 10.304 26.8423 10.136 27.0343 9.864C27.2423 9.576 27.4423 9.352 27.6343 9.192C27.7623 9.08 27.8903 8.976 28.0183 8.88C28.1463 8.784 28.2503 8.656 28.3303 8.496C28.3783 8.416 28.4423 8.368 28.5223 8.352C28.6023 8.32 28.6743 8.288 28.7383 8.256C28.8183 8.224 28.8903 8.184 28.9543 8.136C29.0183 8.072 29.0583 7.96 29.0743 7.8ZM29.6263 19.296C29.5623 19.296 29.5303 19.32 29.5303 19.368C29.5303 19.384 29.5383 19.4 29.5543 19.416C29.5703 19.432 29.5863 19.44 29.6023 19.44C29.6343 19.44 29.6503 19.408 29.6503 19.344C29.6503 19.328 29.6423 19.312 29.6263 19.296ZM27.1063 10.296C27.0903 10.28 27.0823 10.272 27.0823 10.272C27.0823 10.256 27.0743 10.24 27.0583 10.224C27.0583 10.224 27.0423 10.24 27.0103 10.272C27.0103 10.336 27.0263 10.368 27.0583 10.368C27.0903 10.368 27.1063 10.344 27.1063 10.296ZM28.0423 10.488V10.44L28.0663 10.464L28.0423 10.488Z" fill="white"/>
<path d="M46.1773 8.328C46.1773 8.296 46.1933 8.28 46.2253 8.28C46.2893 8.28 46.3773 8.328 46.4893 8.424C46.6013 8.504 46.6573 8.6 46.6573 8.712C46.6573 8.808 46.5853 8.904 46.4413 9C46.2973 9.096 46.0333 9.16 45.6493 9.192C45.2333 9.224 44.8333 9.32 44.4493 9.48C44.0813 9.64 43.7213 9.808 43.3693 9.984C43.1453 10.096 42.9613 10.2 42.8173 10.296C42.6733 10.376 42.5533 10.464 42.4573 10.56C42.3773 10.64 42.3133 10.736 42.2653 10.848C42.2333 10.96 42.2093 11.104 42.1933 11.28C42.1933 11.312 42.1693 11.44 42.1213 11.664C42.0893 11.888 42.0413 12.128 41.9773 12.384C41.9293 12.64 41.8733 12.88 41.8093 13.104C41.7613 13.312 41.7293 13.424 41.7133 13.44C41.5853 13.52 41.5053 13.624 41.4733 13.752C41.4413 13.864 41.4173 13.992 41.4013 14.136C41.4013 14.264 41.3933 14.4 41.3773 14.544C41.3773 14.688 41.3293 14.816 41.2333 14.928C41.1533 15.04 41.0733 15.168 40.9933 15.312C40.9293 15.44 40.8253 15.608 40.6813 15.816C40.5373 16.008 40.3453 16.256 40.1053 16.56C39.8653 16.848 39.5293 17.208 39.0973 17.64C39.0973 17.64 39.0893 17.632 39.0733 17.616C39.0253 17.616 38.9453 17.648 38.8333 17.712C38.7213 17.76 38.5933 17.816 38.4493 17.88C38.3213 17.96 38.1853 18.04 38.0413 18.12C37.9133 18.2 37.8093 18.264 37.7293 18.312C37.4733 18.232 37.2093 18.16 36.9373 18.096C36.6653 18.032 36.4093 17.912 36.1693 17.736C35.8493 17.48 35.5613 17.168 35.3053 16.8C35.0813 16.48 34.8813 16.088 34.7053 15.624C34.5453 15.16 34.4653 14.616 34.4653 13.992C34.4653 13.752 34.4973 13.52 34.5613 13.296C34.6253 13.072 34.6573 12.848 34.6573 12.624C34.6573 12.544 34.6813 12.424 34.7293 12.264C34.7933 12.088 34.8493 11.896 34.8973 11.688C34.9613 11.48 35.0173 11.28 35.0653 11.088C35.1293 10.88 35.1613 10.704 35.1613 10.56C35.1613 10.432 35.1213 10.28 35.0413 10.104C34.9773 9.928 34.9053 9.744 34.8253 9.552C34.7453 9.344 34.6653 9.144 34.5853 8.952C34.5213 8.744 34.4893 8.552 34.4893 8.376C34.4893 7.752 34.5453 7.264 34.6573 6.912C34.7853 6.544 34.9533 6.272 35.1613 6.096C35.3853 5.904 35.6493 5.784 35.9533 5.736C36.2733 5.688 36.6333 5.664 37.0333 5.664H38.1853C38.5053 5.664 38.8013 5.76 39.0733 5.952C39.3613 6.128 39.6493 6.264 39.9373 6.36C40.0973 6.424 40.2733 6.528 40.4653 6.672C40.6573 6.816 40.8333 6.984 40.9933 7.176C41.1693 7.368 41.3213 7.576 41.4493 7.8C41.5933 8.024 41.6973 8.248 41.7613 8.472C41.8093 8.664 41.8653 8.864 41.9293 9.072C41.9933 9.264 42.1293 9.36 42.3373 9.36C42.3853 9.36 42.4573 9.344 42.5533 9.312C43.1613 9.104 43.7533 8.896 44.3293 8.688C44.9213 8.48 45.5373 8.36 46.1773 8.328ZM40.8733 11.88C40.8413 11.72 40.8253 11.576 40.8253 11.448C40.8253 11.32 40.7373 11.256 40.5613 11.256C40.1293 11.416 39.6893 11.568 39.2413 11.712C38.8093 11.856 38.3613 11.928 37.8973 11.928C37.6573 11.992 37.4893 12.184 37.3933 12.504C37.2973 12.808 37.2493 13.144 37.2493 13.512C37.2493 13.576 37.2493 13.64 37.2493 13.704C37.2653 13.752 37.2733 13.808 37.2733 13.872C37.2733 14.032 37.2413 14.2 37.1773 14.376C37.1293 14.552 37.1053 14.712 37.1053 14.856C37.1053 14.984 37.1213 15.128 37.1533 15.288C37.2013 15.448 37.2653 15.608 37.3453 15.768C37.4253 15.928 37.5213 16.064 37.6333 16.176C37.7453 16.272 37.8813 16.32 38.0413 16.32C38.3293 16.32 38.6013 16.168 38.8573 15.864C39.1293 15.56 39.3693 15.224 39.5773 14.856C39.8013 14.472 39.9933 14.112 40.1533 13.776C40.3293 13.44 40.4733 13.232 40.5853 13.152C40.7133 13.072 40.7853 12.896 40.8013 12.624C40.8173 12.352 40.8413 12.104 40.8733 11.88ZM37.3933 6.48C37.3453 6.496 37.2893 6.512 37.2253 6.528C37.1613 6.528 37.0893 6.536 37.0093 6.552C36.8173 6.584 36.6493 6.664 36.5053 6.792C36.3613 6.904 36.2413 7.048 36.1453 7.224C36.0493 7.384 35.9693 7.568 35.9053 7.776C35.8573 7.968 35.8333 8.152 35.8333 8.328C35.8333 8.44 35.8413 8.592 35.8573 8.784C35.8893 8.96 35.9853 9.048 36.1453 9.048C36.1773 9.048 36.1933 9.04 36.1933 9.024C36.3693 8.848 36.4893 8.728 36.5533 8.664C36.6173 8.584 36.6893 8.544 36.7693 8.544C36.8653 8.544 36.9853 8.576 37.1293 8.64C37.1613 8.656 37.2653 8.688 37.4413 8.736C37.6173 8.784 37.8013 8.848 37.9933 8.928C38.1853 9.008 38.3533 9.104 38.4973 9.216C38.6573 9.328 38.7373 9.456 38.7373 9.6C38.7373 9.712 38.6813 9.856 38.5693 10.032C38.4573 10.208 38.4013 10.352 38.4013 10.464C38.4013 10.56 38.4333 10.624 38.4973 10.656C38.5773 10.672 38.6493 10.68 38.7133 10.68C38.8733 10.664 39.0653 10.64 39.2893 10.608C39.5133 10.56 39.7293 10.504 39.9373 10.44C40.1613 10.36 40.3453 10.272 40.4893 10.176C40.6493 10.064 40.7293 9.936 40.7293 9.792C40.7293 9.712 40.7213 9.64 40.7053 9.576C40.7053 9.512 40.6893 9.44 40.6573 9.36C40.5133 9.04 40.3373 8.712 40.1293 8.376C39.9213 8.024 39.6813 7.712 39.4093 7.44C39.1533 7.152 38.8573 6.92 38.5213 6.744C38.1853 6.568 37.8093 6.48 37.3933 6.48Z" fill="white"/>
</svg>
